<svg width="30" height="25" viewBox="0 0 30 25" fill="none" xmlns="http://www.w3.org/2000/svg">
<g clip-path="url(#clip0_80_55)">
<path d="M29 23H27V14L27.2925 14.2925C27.4805 14.4801 27.7353 14.5854 28.0009 14.5851C28.2665 14.5849 28.5211 14.4792 28.7087 14.2912C28.8964 14.1032 29.0017 13.8484 29.0014 13.5828C29.0012 13.3172 28.8955 13.0626 28.7075 12.875L16.4137 0.584957C16.0387 0.210168 15.5302 -0.000366211 15 -0.000366211C14.4698 -0.000366211 13.9613 0.210168 13.5863 0.584957L1.2925 12.875C1.10503 13.0626 0.999769 13.317 0.999886 13.5823C1 13.8475 1.10548 14.1019 1.29312 14.2893C1.48077 14.4768 1.7352 14.5821 2.00044 14.5819C2.26569 14.5818 2.52003 14.4763 2.7075 14.2887L3 14V23H1C0.734784 23 0.48043 23.1053 0.292893 23.2928C0.105357 23.4804 0 23.7347 0 24C0 24.2652 0.105357 24.5195 0.292893 24.7071C0.48043 24.8946 0.734784 25 1 25H29C29.2652 25 29.5196 24.8946 29.7071 24.7071C29.8946 24.5195 30 24.2652 30 24C30 23.7347 29.8946 23.4804 29.7071 23.2928C29.5196 23.1053 29.2652 23 29 23ZM5 12L15 1.99996L25 12V23H19V16C19 15.7347 18.8946 15.4804 18.7071 15.2928C18.5196 15.1053 18.2652 15 18 15H12C11.7348 15 11.4804 15.1053 11.2929 15.2928C11.1054 15.4804 11 15.7347 11 16V23H5V12ZM17 23H13V17H17V23Z" fill="#33372C"/>
</g>
<defs>
<clipPath id="clip0_80_55">
<rect width="30" height="25" fill="white"/>
</clipPath>
</defs>
</svg>
