<svg width="24" height="18" viewBox="0 0 24 18" fill="none" xmlns="http://www.w3.org/2000/svg">
<path d="M24 9C24 9.2652 23.8946 9.5196 23.7071 9.7071C23.5196 9.8946 23.2652 10 23 10H1C0.73478 10 0.48043 9.8946 0.29289 9.7071C0.10536 9.5196 0 9.2652 0 9C0 8.7348 0.10536 8.4804 0.29289 8.2929C0.48043 8.1054 0.73478 8 1 8H23C23.2652 8 23.5196 8.1054 23.7071 8.2929C23.8946 8.4804 24 8.7348 24 9ZM1 2H23C23.2652 2 23.5196 1.89464 23.7071 1.70711C23.8946 1.51957 24 1.26522 24 1C24 0.73478 23.8946 0.48043 23.7071 0.29289C23.5196 0.10536 23.2652 0 23 0H1C0.73478 0 0.48043 0.10536 0.29289 0.29289C0.10536 0.48043 0 0.73478 0 1C0 1.26522 0.10536 1.51957 0.29289 1.70711C0.48043 1.89464 0.73478 2 1 2ZM23 16H1C0.73478 16 0.48043 16.1054 0.29289 16.2929C0.10536 16.4804 0 16.7348 0 17C0 17.2652 0.10536 17.5196 0.29289 17.7071C0.48043 17.8946 0.73478 18 1 18H23C23.2652 18 23.5196 17.8946 23.7071 17.7071C23.8946 17.5196 24 17.2652 24 17C24 16.7348 23.8946 16.4804 23.7071 16.2929C23.5196 16.1054 23.2652 16 23 16Z" fill="#33372C"/>
</svg>
