<svg width="26" height="26" viewBox="0 0 26 26" fill="none" xmlns="http://www.w3.org/2000/svg">
<path d="M25 11H1C0.73478 11 0.48043 11.1054 0.29289 11.2929C0.10536 11.4804 0 11.7348 0 12C0.00439 14.3782 0.65887 16.7099 1.89264 18.7429C3.12641 20.776 4.89253 22.4331 7 23.535V24C7 24.5304 7.2107 25.0392 7.5858 25.4142C7.9609 25.7893 8.4696 26 9 26H17C17.5304 26 18.0391 25.7893 18.4142 25.4142C18.7893 25.0392 19 24.5304 19 24V23.535C21.1075 22.4331 22.8736 20.776 24.1074 18.7429C25.3411 16.7099 25.9956 14.3782 26 12C26 11.7348 25.8946 11.4804 25.7071 11.2929C25.5196 11.1054 25.2652 11 25 11ZM17.5825 22C17.4086 22.0799 17.2614 22.208 17.1581 22.369C17.0549 22.5301 17 22.7174 17 22.9088V24H9V22.9113C9.0005 22.7195 8.9458 22.5317 8.8426 22.3701C8.7393 22.2085 8.5917 22.0801 8.4175 22C6.6589 21.1908 5.1441 19.9332 4.02513 18.3535C2.90617 16.7737 2.22242 14.9275 2.0425 13H23.9538C23.7742 14.9271 23.091 16.7731 21.9727 18.3528C20.8544 19.9324 19.3404 21.1903 17.5825 22ZM7.2212 3.87501C7.89 3.04251 8.055 2.48001 7.9862 2.23251C7.9337 2.04626 7.685 1.95001 7.6825 1.95001C7.4561 1.87562 7.2638 1.72286 7.1401 1.51922C7.0164 1.31559 6.96941 1.07447 7.0077 0.839304C7.046 0.604124 7.167 0.390354 7.3489 0.236484C7.5308 0.082614 7.7617 -0.00124601 8 1.39946e-05C8.1009 0.000133995 8.2011 0.0153041 8.2975 0.0450141C8.4225 0.0837641 9.5362 0.461264 9.8962 1.64001C10.2037 2.64876 9.8275 3.82126 8.7788 5.12626C8.11 5.95876 7.945 6.52126 8.0138 6.76876C8.0663 6.95501 8.31 7.0488 8.3125 7.05C8.5384 7.1243 8.7305 7.2766 8.8543 7.4797C8.978 7.6829 9.0253 7.9234 8.9877 8.1583C8.95 8.3931 8.8299 8.6068 8.6489 8.7611C8.4679 8.9154 8.2378 9.0001 8 9C7.8991 8.9999 7.7989 8.9847 7.7025 8.955C7.5775 8.9163 6.46375 8.5388 6.10375 7.36C5.79625 6.35126 6.1725 5.17876 7.2212 3.87501ZM12.2212 3.87501C12.89 3.04251 13.055 2.48001 12.9862 2.23251C12.9337 2.04626 12.685 1.95001 12.6825 1.95001C12.4561 1.87562 12.2638 1.72286 12.1401 1.51922C12.0164 1.31559 11.9694 1.07447 12.0077 0.839304C12.046 0.604124 12.167 0.390354 12.3489 0.236484C12.5308 0.082614 12.7617 -0.00124601 13 1.39946e-05C13.1009 0.000133995 13.2011 0.0153041 13.2975 0.0450141C13.4225 0.0837641 14.5362 0.461264 14.8962 1.64001C15.2037 2.64876 14.8275 3.82126 13.7787 5.12626C13.11 5.95876 12.945 6.52126 13.0138 6.76876C13.0663 6.95501 13.31 7.0488 13.3125 7.05C13.5384 7.1243 13.7305 7.2766 13.8543 7.4797C13.978 7.6829 14.0253 7.9234 13.9877 8.1583C13.95 8.3931 13.8299 8.6068 13.6489 8.7611C13.4679 8.9154 13.2378 9.0001 13 9C12.8991 8.9999 12.7989 8.9847 12.7025 8.955C12.5775 8.9163 11.4638 8.5388 11.1038 7.36C10.7963 6.35126 11.1725 5.17876 12.2212 3.87501ZM17.2213 3.87501C17.89 3.04251 18.055 2.48001 17.9862 2.23251C17.9337 2.04626 17.685 1.95001 17.6825 1.95001C17.4561 1.87562 17.2638 1.72286 17.1401 1.51922C17.0164 1.31559 16.9694 1.07447 17.0077 0.839304C17.046 0.604124 17.167 0.390354 17.3489 0.236484C17.5308 0.082614 17.7617 -0.00124601 18 1.39946e-05C18.1009 0.000133995 18.2011 0.0153041 18.2975 0.0450141C18.4225 0.0837641 19.5362 0.461264 19.8962 1.64001C20.2037 2.64876 19.8275 3.82126 18.7787 5.12626C18.11 5.95876 17.945 6.52126 18.0138 6.76876C18.0663 6.95501 18.31 7.0488 18.3125 7.05C18.5384 7.1243 18.7305 7.2766 18.8543 7.4797C18.978 7.6829 19.0253 7.9234 18.9877 8.1583C18.95 8.3931 18.8299 8.6068 18.6489 8.7611C18.4679 8.9154 18.2378 9.0001 18 9C17.8991 8.9999 17.7989 8.9847 17.7025 8.955C17.5775 8.9163 16.4638 8.5388 16.1038 7.36C15.7963 6.35126 16.1725 5.17876 17.2213 3.87501Z" fill="#33372C"/>
</svg>
