<svg width="28" height="26" viewBox="0 0 28 26" fill="none" xmlns="http://www.w3.org/2000/svg">
<path d="M26.865 23.5C24.9612 20.2087 22.0275 17.8487 18.6037 16.73C20.2973 15.7218 21.613 14.1856 22.349 12.3572C23.0849 10.5289 23.2004 8.5095 22.6775 6.60918C22.1547 4.70887 21.0226 3.03272 19.4549 1.83814C17.8873 0.643552 15.9709 -0.00341797 14 -0.00341797C12.0291 -0.00341797 10.1126 0.643552 8.545 1.83814C6.97737 3.03272 5.84522 4.70887 5.3224 6.60918C4.79958 8.5095 4.91501 10.5289 5.65096 12.3572C6.38691 14.1856 7.70268 15.7218 9.3962 16.73C5.97247 17.8475 3.03872 20.2075 1.13497 23.5C1.06516 23.6138 1.01885 23.7405 0.998779 23.8725C0.978719 24.0045 0.985289 24.1392 1.01813 24.2687C1.05096 24.3981 1.10939 24.5197 1.18996 24.6262C1.27053 24.7326 1.37162 24.8219 1.48725 24.8887C1.60289 24.9555 1.73073 24.9985 1.86323 25.015C1.99574 25.0316 2.13022 25.0215 2.25875 24.9853C2.38728 24.949 2.50725 24.8874 2.61158 24.8041C2.71592 24.7207 2.8025 24.6173 2.86622 24.5C5.22122 20.43 9.3837 18 14 18C18.6162 18 22.7787 20.43 25.1337 24.5C25.1974 24.6173 25.284 24.7207 25.3884 24.8041C25.4927 24.8874 25.6127 24.949 25.7412 24.9853C25.8697 25.0215 26.0042 25.0316 26.1367 25.015C26.2692 24.9985 26.3971 24.9555 26.5127 24.8887C26.6283 24.8219 26.7294 24.7326 26.81 24.6262C26.8906 24.5197 26.949 24.3981 26.9818 24.2687C27.0147 24.1392 27.0212 24.0045 27.0012 23.8725C26.9811 23.7405 26.9348 23.6138 26.865 23.5ZM6.99997 9C6.99997 7.6155 7.41051 6.26214 8.1797 5.11099C8.9489 3.95985 10.0421 3.06264 11.3212 2.53283C12.6003 2.00301 14.0077 1.86439 15.3656 2.13449C16.7235 2.40458 17.9708 3.07127 18.9497 4.05023C19.9287 5.0292 20.5954 6.27648 20.8655 7.6344C21.1356 8.9922 20.9969 10.3997 20.4671 11.6788C19.9373 12.9578 19.0401 14.0511 17.889 14.8203C16.7378 15.5894 15.3844 16 14 16C12.1441 15.998 10.3647 15.2599 9.0524 13.9475C7.74009 12.6352 7.00196 10.8559 6.99997 9Z" fill="#33372C"/>
</svg>
